<?xml version="1.0" encoding="utf-8"?>
<!-- Generator: Adobe Illustrator 21.0.2, SVG Export Plug-In . SVG Version: 6.00 Build 0)  -->
<svg version="1.1" id="Layer_1" xmlns="http://www.w3.org/2000/svg" xmlns:xlink="http://www.w3.org/1999/xlink" x="0px" y="0px"
	 viewBox="0 0 184.1 248.5" style="enable-background:new 0 0 184.1 248.5;" xml:space="preserve">
<style type="text/css">
	.st0{fill:#FFFFFF;stroke:#FFFFFF;stroke-width:3;stroke-miterlimit:10;}
</style>
<g>
	<g>
		<path class="st0" d="M118.5,247c-17.6,0-30.5-4.2-38.5-12.7c-8.1-8.4-12.1-17.5-12.1-27.3c0-3.6,0.7-6.6,2.1-9s3.3-4.4,5.8-5.8
			c2.4-1.4,5.4-2.1,9-2.1s6.6,0.7,9,2.1c2.4,1.4,4.4,3.3,5.8,5.8s2.1,5.4,2.1,9c0,4.3-1,7.8-3.1,10.5s-4.5,4.5-7.3,5.3
			c2.4,3.4,6.3,5.8,11.5,7.2s10.5,2.2,15.8,2.2c7.3,0,13.9-2,19.8-5.9c5.9-3.9,10.3-9.8,13.1-17.4c2.8-7.7,4.2-16.4,4.2-26.2
			c0-10.6-1.5-19.7-4.6-27.2c-3-7.5-7.5-13.1-13.4-16.8s-12.3-5.5-19.1-5.5c-4.5,0-10.1,1.9-16.9,5.6L89.3,145v-6L145,64.8H67.9
			v77.1c0,6.4,1.4,11.6,4.2,15.8c2.8,4.1,7.1,6.2,12.9,6.2c4.5,0,8.8-1.5,12.9-4.5s7.7-6.7,10.7-11c0.4-0.8,0.8-1.5,1.4-1.9
			s1.2-0.6,1.8-0.6c1,0,2.3,0.5,3.7,1.5c1.3,1.5,2,3.2,2,5.2c-0.1,0.9-0.3,2.2-0.7,3.9c-3.2,7.1-7.6,12.6-13.2,16.3
			c-5.6,3.8-11.8,5.6-18.6,5.6c-16.7,0-28.2-3.3-34.6-9.8c-6.4-6.6-9.6-15.5-9.6-26.7V64.8H1.5V50.4h39.4V17.8l-9-9V1.5H58l9.8,5.1
			v43.9l101.8-0.3l10.1,10.1l-62.4,62.4c3.8-1.5,7.7-2.4,11.8-2.8c6.8,0,14.4,2.1,22.9,6.4s15,10.1,19.6,17.4
			c4.6,7.4,7.6,14.4,8.9,21.2c1.4,6.8,2,12.8,2,18c0,12-2.5,23.2-7.6,33.5s-12.7,18-23.1,23.1C141.7,244.5,130.5,247,118.5,247z"/>
	</g>
</g>
</svg>
